<?xml version="1.0" encoding="UTF-8"?>
<!DOCTYPE svg PUBLIC "-//W3C//DTD SVG 1.1//EN" "http://www.w3.org/Graphics/SVG/1.1/DTD/svg11.dtd">
<!-- Creator: CorelDRAW -->
<svg xmlns="http://www.w3.org/2000/svg" xml:space="preserve" width="435px" height="350px" version="1.1" style="shape-rendering:geometricPrecision; text-rendering:geometricPrecision; image-rendering:optimizeQuality; fill-rule:evenodd; clip-rule:evenodd"
viewBox="0 0 56.16 45.19"
 xmlns:xlink="http://www.w3.org/1999/xlink"
 xmlns:xodm="http://www.corel.com/coreldraw/odm/2003">
 <defs>
  <style type="text/css">
   <![CDATA[
    .str0 {stroke:#333333;stroke-width:0.12;stroke-miterlimit:22.9256}
    .fil3 {fill:#1A1A1A}
    .fil2 {fill:#242424}
    .fil1 {fill:#333333;fill-rule:nonzero}
    .fil11 {fill:url(#id0)}
    .fil10 {fill:url(#id1)}
    .fil13 {fill:url(#id2)}
    .fil12 {fill:url(#id3)}
    .fil0 {fill:url(#id4)}
    .fil4 {fill:url(#id5)}
    .fil7 {fill:url(#id6)}
    .fil6 {fill:url(#id7)}
    .fil9 {fill:url(#id8)}
    .fil8 {fill:url(#id9)}
    .fil5 {fill:url(#id10)}
   ]]>
  </style>
  <linearGradient id="id0" gradientUnits="userSpaceOnUse" x1="1.38" y1="40.99" x2="1.96" y2="40.99">
   <stop offset="0" style="stop-opacity:1; stop-color:#138548"/>
   <stop offset="0.2" style="stop-opacity:1; stop-color:#71B474"/>
   <stop offset="0.45098" style="stop-opacity:1; stop-color:#67B97F"/>
   <stop offset="1" style="stop-opacity:1; stop-color:#138548"/>
  </linearGradient>
  <linearGradient id="id1" gradientUnits="userSpaceOnUse" xlink:href="#id0" x1="1.38" y1="40.99" x2="1.96" y2="40.99">
  </linearGradient>
  <linearGradient id="id2" gradientUnits="userSpaceOnUse" xlink:href="#id0" x1="1.38" y1="5.87" x2="1.96" y2="5.87">
  </linearGradient>
  <linearGradient id="id3" gradientUnits="userSpaceOnUse" xlink:href="#id0" x1="1.38" y1="5.87" x2="1.96" y2="5.87">
  </linearGradient>
  <linearGradient id="id4" gradientUnits="userSpaceOnUse" x1="-9.84" y1="11.45" x2="66.01" y2="33.74">
   <stop offset="0" style="stop-opacity:1; stop-color:#36AD67"/>
   <stop offset="1" style="stop-opacity:1; stop-color:#2EB86F"/>
  </linearGradient>
  <linearGradient id="id5" gradientUnits="userSpaceOnUse" x1="29.84" y1="24.72" x2="33.33" y2="24.72">
   <stop offset="0" style="stop-opacity:1; stop-color:#302F2F"/>
   <stop offset="0.211765" style="stop-opacity:1; stop-color:#323232"/>
   <stop offset="1" style="stop-opacity:1; stop-color:#242424"/>
  </linearGradient>
  <linearGradient id="id6" gradientUnits="userSpaceOnUse" xlink:href="#id0" x1="54.19" y1="40.99" x2="54.77" y2="40.99">
  </linearGradient>
  <linearGradient id="id7" gradientUnits="userSpaceOnUse" xlink:href="#id0" x1="54.19" y1="40.99" x2="54.77" y2="40.99">
  </linearGradient>
  <linearGradient id="id8" gradientUnits="userSpaceOnUse" xlink:href="#id0" x1="54.19" y1="5.87" x2="54.77" y2="5.87">
  </linearGradient>
  <linearGradient id="id9" gradientUnits="userSpaceOnUse" xlink:href="#id0" x1="54.19" y1="5.87" x2="54.77" y2="5.87">
  </linearGradient>
  <linearGradient id="id10" gradientUnits="userSpaceOnUse" xlink:href="#id5" x1="23.03" y1="24.72" x2="26.52" y2="24.72">
  </linearGradient>
 </defs>
 <g id="Слой_x0020_1">
  <metadata id="CorelCorpID_0Corel-Layer"/>
  <g id="_1772849308480">
   <rect class="fil0" width="56.16" height="45.19"/>
   <polygon class="fil1" points="54.57,45.19 54.57,1.59 1.59,1.59 1.59,45.19 1.75,45.19 1.75,1.76 28,1.76 28,45.19 28.16,45.19 28.16,1.76 54.41,1.76 54.41,45.19 "/>
   <g>
    <g>
     <circle class="fil2" cx="30.1" cy="24.73" r="0.72"/>
     <circle class="fil3" cx="30.1" cy="24.73" r="0.38"/>
     <rect class="fil4" x="29.84" y="24.46" width="3.49" height="0.52" rx="0.35" ry="0.26"/>
    </g>
    <g>
     <circle class="fil2" cx="26.26" cy="24.73" r="0.72"/>
     <circle class="fil3" cx="26.26" cy="24.73" r="0.38"/>
     <rect class="fil5" x="23.03" y="24.46" width="3.49" height="0.52" rx="0.35" ry="0.26"/>
    </g>
   </g>
   <g>
    <g>
     <rect class="fil6 str0" x="54.19" y="39.37" width="0.58" height="3.23" rx="0.29" ry="0.29"/>
     <rect class="fil7 str0" x="54.19" y="40.9" width="0.58" height="0.17"/>
    </g>
    <g>
     <rect class="fil8 str0" x="54.19" y="4.26" width="0.58" height="3.23" rx="0.29" ry="0.29"/>
     <rect class="fil9 str0" x="54.19" y="5.79" width="0.58" height="0.17"/>
    </g>
   </g>
   <g>
    <g>
     <rect class="fil10 str0" x="1.38" y="39.37" width="0.58" height="3.23" rx="0.29" ry="0.29"/>
     <rect class="fil11 str0" x="1.38" y="40.9" width="0.58" height="0.17"/>
    </g>
    <g>
     <rect class="fil12 str0" x="1.38" y="4.26" width="0.58" height="3.23" rx="0.29" ry="0.29"/>
     <rect class="fil13 str0" x="1.38" y="5.79" width="0.58" height="0.17"/>
    </g>
   </g>
  </g>
 </g>
</svg>
