<?xml version="1.0" encoding="UTF-8"?>
<!DOCTYPE svg PUBLIC "-//W3C//DTD SVG 1.1//EN" "http://www.w3.org/Graphics/SVG/1.1/DTD/svg11.dtd">
<!-- Creator: CorelDRAW -->
<svg xmlns="http://www.w3.org/2000/svg" xml:space="preserve" width="425px" height="350px" version="1.1" style="shape-rendering:geometricPrecision; text-rendering:geometricPrecision; image-rendering:optimizeQuality; fill-rule:evenodd; clip-rule:evenodd"
viewBox="0 0 85.87 70.72"
 xmlns:xlink="http://www.w3.org/1999/xlink"
 xmlns:xodm="http://www.corel.com/coreldraw/odm/2003">
 <defs>
  <style type="text/css">
   <![CDATA[
    .str0 {stroke:#333333;stroke-width:0.18;stroke-miterlimit:22.9256}
    .fil7 {fill:#1A1A1A}
    .fil6 {fill:#242424}
    .fil1 {fill:#333333;fill-rule:nonzero}
    .fil0 {fill:url(#id0)}
    .fil8 {fill:url(#id1)}
    .fil3 {fill:url(#id2)}
    .fil2 {fill:url(#id3)}
    .fil5 {fill:url(#id4)}
    .fil4 {fill:url(#id5)}
   ]]>
  </style>
  <linearGradient id="id0" gradientUnits="userSpaceOnUse" x1="-15.05" y1="17.92" x2="100.93" y2="52.8">
   <stop offset="0" style="stop-opacity:1; stop-color:#36AD67"/>
   <stop offset="1" style="stop-opacity:1; stop-color:#2EB86F"/>
  </linearGradient>
  <linearGradient id="id1" gradientUnits="userSpaceOnUse" x1="46.29" y1="38.7" x2="51.76" y2="38.7">
   <stop offset="0" style="stop-opacity:1; stop-color:#302F2F"/>
   <stop offset="0.211765" style="stop-opacity:1; stop-color:#323232"/>
   <stop offset="1" style="stop-opacity:1; stop-color:#242424"/>
  </linearGradient>
  <linearGradient id="id2" gradientUnits="userSpaceOnUse" x1="2.13" y1="64.14" x2="3.04" y2="64.14">
   <stop offset="0" style="stop-opacity:1; stop-color:#138548"/>
   <stop offset="0.2" style="stop-opacity:1; stop-color:#71B474"/>
   <stop offset="0.45098" style="stop-opacity:1; stop-color:#67B97F"/>
   <stop offset="1" style="stop-opacity:1; stop-color:#138548"/>
  </linearGradient>
  <linearGradient id="id3" gradientUnits="userSpaceOnUse" xlink:href="#id2" x1="2.13" y1="64.14" x2="3.04" y2="64.14">
  </linearGradient>
  <linearGradient id="id4" gradientUnits="userSpaceOnUse" xlink:href="#id2" x1="2.13" y1="9.19" x2="3.04" y2="9.19">
  </linearGradient>
  <linearGradient id="id5" gradientUnits="userSpaceOnUse" xlink:href="#id2" x1="2.13" y1="9.19" x2="3.04" y2="9.19">
  </linearGradient>
 </defs>
 <g id="Слой_x0020_1">
  <metadata id="CorelCorpID_0Corel-Layer"/>
  <g id="_1772711722432">
   <rect class="fil0" width="85.87" height="70.72"/>
   <path class="fil1" d="M56.32 0l0 70.72 0.26 0 0 -70.72 -0.26 0zm-2.32 70.72l0 -68.23 -51.55 0 0 68.23 0.27 0 0 -67.97 51.01 0 0 67.97 0.27 0z"/>
   <g>
    <g>
     <rect class="fil2 str0" x="2.13" y="61.62" width="0.91" height="5.06" rx="0.46" ry="0.46"/>
     <rect class="fil3 str0" x="2.13" y="64.01" width="0.91" height="0.26"/>
    </g>
    <g>
     <rect class="fil4 str0" x="2.13" y="6.67" width="0.91" height="5.06" rx="0.46" ry="0.46"/>
     <rect class="fil5 str0" x="2.13" y="9.06" width="0.91" height="0.26"/>
    </g>
   </g>
   <g>
    <circle class="fil6" cx="51.34" cy="38.7" r="1.13"/>
    <circle class="fil7" cx="51.34" cy="38.7" r="0.6"/>
    <rect class="fil8" x="46.29" y="38.29" width="5.47" height="0.82" rx="0.55" ry="0.41"/>
   </g>
  </g>
 </g>
</svg>
