<?xml version="1.0" encoding="UTF-8"?>
<!DOCTYPE svg PUBLIC "-//W3C//DTD SVG 1.1//EN" "http://www.w3.org/Graphics/SVG/1.1/DTD/svg11.dtd">
<!-- Creator: CorelDRAW -->
<svg xmlns="http://www.w3.org/2000/svg" xml:space="preserve" width="435px" height="350px" version="1.1" style="shape-rendering:geometricPrecision; text-rendering:geometricPrecision; image-rendering:optimizeQuality; fill-rule:evenodd; clip-rule:evenodd"
viewBox="0 0 27.06 21.77"
 xmlns:xlink="http://www.w3.org/1999/xlink"
 xmlns:xodm="http://www.corel.com/coreldraw/odm/2003">
 <defs>
  <style type="text/css">
   <![CDATA[
    .fil3 {fill:#1A1A1A}
    .fil2 {fill:#242424}
    .fil1 {fill:#7A6E65}
    .fil11 {fill:url(#id0)}
    .fil4 {fill:url(#id1)}
    .fil5 {fill:url(#id2)}
    .fil8 {fill:url(#id3)}
    .fil10 {fill:url(#id4)}
    .fil0 {fill:url(#id5)}
    .fil7 {fill:url(#id6)}
    .fil9 {fill:url(#id7)}
    .fil6 {fill:url(#id8)}
   ]]>
  </style>
  <linearGradient id="id0" gradientUnits="userSpaceOnUse" x1="22.92" y1="11.14" x2="23.06" y2="11.14">
   <stop offset="0" style="stop-opacity:1; stop-color:#948881"/>
   <stop offset="1" style="stop-opacity:1; stop-color:#CFBEB0"/>
  </linearGradient>
  <linearGradient id="id1" gradientUnits="userSpaceOnUse" x1="11.05" y1="11.91" x2="12.73" y2="11.91">
   <stop offset="0" style="stop-opacity:1; stop-color:#302F2F"/>
   <stop offset="0.211765" style="stop-opacity:1; stop-color:#323232"/>
   <stop offset="1" style="stop-opacity:1; stop-color:#242424"/>
  </linearGradient>
  <linearGradient id="id2" gradientUnits="userSpaceOnUse" xlink:href="#id1" x1="14.33" y1="11.91" x2="16.01" y2="11.91">
  </linearGradient>
  <linearGradient id="id3" gradientUnits="userSpaceOnUse" xlink:href="#id0" x1="2.69" y1="11.14" x2="2.84" y2="11.14">
  </linearGradient>
  <linearGradient id="id4" gradientUnits="userSpaceOnUse" xlink:href="#id0" x1="24.23" y1="11.14" x2="24.37" y2="11.14">
  </linearGradient>
  <linearGradient id="id5" gradientUnits="userSpaceOnUse" x1="0.83" y1="4.75" x2="26.23" y2="17.02">
   <stop offset="0" style="stop-opacity:1; stop-color:#ADA197"/>
   <stop offset="0.760784" style="stop-opacity:1; stop-color:#B5A296"/>
   <stop offset="1" style="stop-opacity:1; stop-color:#B3A49D"/>
  </linearGradient>
  <linearGradient id="id6" gradientUnits="userSpaceOnUse" xlink:href="#id0" x1="4" y1="11.14" x2="4.15" y2="11.14">
  </linearGradient>
  <linearGradient id="id7" gradientUnits="userSpaceOnUse" xlink:href="#id0" x1="23.57" y1="11.14" x2="23.72" y2="11.14">
  </linearGradient>
  <linearGradient id="id8" gradientUnits="userSpaceOnUse" xlink:href="#id0" x1="3.34" y1="11.14" x2="3.49" y2="11.14">
  </linearGradient>
 </defs>
 <g id="Слой_x0020_1">
  <metadata id="CorelCorpID_0Corel-Layer"/>
  <g id="_1808599597952">
   <rect class="fil0" width="27.06" height="21.77"/>
   <path class="fil1" d="M25.95 1.39l0 -0.47c0,-0.03 0.01,-0.05 0.03,-0.07l0.07 -0.04 -12.49 0 -0.03 0 0 0 -0.03 0 -12.49 0 0.07 0.04c0.02,0.02 0.03,0.04 0.03,0.07l0 0.47c-0.09,-0.03 -0.19,-0.03 -0.3,0.01l0 0 -0.03 0.01c0,8.33 0,11.1 0,19.43l0 0.01 0 0 0 0c0.11,0.06 0.24,0.06 0.33,0.03l0 0.44c0,0.04 -0.03,0.08 -0.07,0.09l-0.23 0 0 0.07 12.69 0 0.06 0 12.69 0 0 -0.07 -0.23 0c-0.04,-0.01 -0.07,-0.05 -0.07,-0.09l0 -0.44c0.09,0.03 0.22,0.03 0.34,-0.03l0 0 0 0 0 -0.01c0,-8.33 0,-11.1 0,-19.43l-0.04 -0.01 0 0c-0.11,-0.04 -0.21,-0.04 -0.3,-0.01zm-24.76 -0.52c0,0.01 0,0.02 0,0.04l0 1.11c0,0 0,-0.03 0,0.01 0,0.03 -0.11,0.05 -0.19,0.05 -0.05,0 -0.12,-0.02 -0.16,-0.05l0 18.21c0.03,-0.03 0.11,-0.03 0.15,-0.03 0.08,0 0.2,0.02 0.2,0.06 0,0.04 0,0 0,0l0 1.09c0,0.02 -0.01,0.04 0.02,0.05l12.29 0 0 -20.54 -12.31 0zm-0.35 1.1l0 -0.55c0.1,-0.03 0.19,-0.03 0.27,0.01l0 0.51c0,0.04 0,0.02 -0.02,0.02 -0.03,-0.01 -0.07,-0.02 -0.12,-0.02 -0.05,0 -0.09,0.01 -0.12,0.02 0,0 -0.01,0.01 -0.01,0.01zm0.01 18.34c0.03,0.01 0.21,0.01 0.24,0 0.02,-0.01 0.02,-0.02 0.02,0.02l0 0.51c-0.08,0.03 -0.17,0.03 -0.27,0l0 -0.54c0,0 0.01,0.01 0.01,0.01zm25.02 -19.44c0,0.01 0,0.02 0,0.04l0 1.11c0,0 0,-0.03 0,0.01 0,0.03 0.11,0.05 0.19,0.05 0.05,0 0.13,-0.02 0.16,-0.05l0 18.21c-0.03,-0.03 -0.11,-0.03 -0.15,-0.03 -0.08,0 -0.2,0.02 -0.2,0.06 0,0.04 0,0 0,0l0 1.09c0,0.02 0.01,0.04 -0.02,0.05l-12.29 0 0 -20.54 12.31 0zm0.35 1.1l0 -0.55c-0.1,-0.03 -0.19,-0.03 -0.27,0.01l0 0.51c0,0.04 0,0.02 0.02,0.02 0.03,-0.01 0.07,-0.02 0.12,-0.02 0.05,0 0.09,0.01 0.12,0.02 0,0 0.01,0.01 0.01,0.01zm-0.01 18.34c-0.03,0.01 -0.21,0.01 -0.24,0 -0.02,-0.01 -0.02,-0.02 -0.02,0.02l0 0.51c0.08,0.03 0.17,0.03 0.27,0l0 -0.54c0,0 -0.01,0.01 -0.01,0.01z"/>
   <g>
    <g>
     <circle class="fil2" cx="12.6" cy="11.91" r="0.35"/>
     <circle class="fil3" cx="12.6" cy="11.91" r="0.18"/>
     <rect class="fil4" x="11.05" y="11.79" width="1.68" height="0.25" rx="0.17" ry="0.13"/>
    </g>
    <g>
     <circle class="fil2" cx="14.46" cy="11.91" r="0.35"/>
     <circle class="fil3" cx="14.46" cy="11.91" r="0.18"/>
     <rect class="fil5" x="14.33" y="11.79" width="1.68" height="0.25" rx="0.17" ry="0.13"/>
    </g>
   </g>
   <g>
    <rect class="fil6" x="3.34" y="0.87" width="0.15" height="20.54"/>
    <rect class="fil7" x="4" y="0.87" width="0.15" height="20.54"/>
    <rect class="fil8" x="2.69" y="0.87" width="0.15" height="20.54"/>
   </g>
   <rect class="fil9" x="23.57" y="0.87" width="0.15" height="20.54"/>
   <rect class="fil10" x="24.23" y="0.87" width="0.15" height="20.54"/>
   <rect class="fil11" x="22.92" y="0.87" width="0.15" height="20.54"/>
  </g>
 </g>
</svg>
