<svg width="336" height="270" viewBox="0 0 336 270" fill="none"
    xmlns="http://www.w3.org/2000/svg">
    <path d="M183.5 136H148M130.5 2H326.5V268H130.5M130.5 2H9V268H130.5M130.5 2V268" stroke="white" stroke-width="3"/>
    <path d="M1 21L9.5 28.5M18 36L9.5 28.5M9.5 28.5L18 21L1 36" stroke="white" stroke-width="3"/>
    <path d="M318 21L326.5 28.5M335 36L326.5 28.5M326.5 28.5L335 21L318 36" stroke="white" stroke-width="3"/>
    <path d="M318 226L326.5 233.5M335 241L326.5 233.5M326.5 233.5L335 226L318 241" stroke="white" stroke-width="3"/>
    <path d="M1 226L9.5 233.5M18 241L9.5 233.5M9.5 233.5L18 226L1 241" stroke="white" stroke-width="3"/>
</svg>
