<?xml version="1.0" encoding="UTF-8"?>
<!DOCTYPE svg PUBLIC "-//W3C//DTD SVG 1.1//EN" "http://www.w3.org/Graphics/SVG/1.1/DTD/svg11.dtd">
<!-- Creator: CorelDRAW -->
<svg xmlns="http://www.w3.org/2000/svg" xml:space="preserve" width="435px" height="350px" version="1.1" style="shape-rendering:geometricPrecision; text-rendering:geometricPrecision; image-rendering:optimizeQuality; fill-rule:evenodd; clip-rule:evenodd"
viewBox="0 0 29.2 23.49"
 xmlns:xlink="http://www.w3.org/1999/xlink"
 xmlns:xodm="http://www.corel.com/coreldraw/odm/2003">
 <defs>
  <style type="text/css">
   <![CDATA[
    .fil3 {fill:#1A1A1A}
    .fil2 {fill:#242424}
    .fil1 {fill:#7A6E65}
    .fil11 {fill:url(#id0)}
    .fil4 {fill:url(#id1)}
    .fil0 {fill:url(#id2)}
    .fil6 {fill:url(#id3)}
    .fil10 {fill:url(#id4)}
    .fil5 {fill:url(#id5)}
    .fil7 {fill:url(#id6)}
    .fil9 {fill:url(#id7)}
    .fil8 {fill:url(#id8)}
   ]]>
  </style>
  <linearGradient id="id0" gradientUnits="userSpaceOnUse" x1="4.32" y1="12.02" x2="4.47" y2="12.02">
   <stop offset="0" style="stop-opacity:1; stop-color:#948881"/>
   <stop offset="1" style="stop-opacity:1; stop-color:#CFBEB0"/>
  </linearGradient>
  <linearGradient id="id1" gradientUnits="userSpaceOnUse" x1="15.46" y1="12.86" x2="17.27" y2="12.86">
   <stop offset="0" style="stop-opacity:1; stop-color:#302F2F"/>
   <stop offset="0.211765" style="stop-opacity:1; stop-color:#323232"/>
   <stop offset="1" style="stop-opacity:1; stop-color:#242424"/>
  </linearGradient>
  <linearGradient id="id2" gradientUnits="userSpaceOnUse" x1="0.89" y1="5.13" x2="28.31" y2="18.37">
   <stop offset="0" style="stop-opacity:1; stop-color:#ADA197"/>
   <stop offset="0.760784" style="stop-opacity:1; stop-color:#B5A296"/>
   <stop offset="1" style="stop-opacity:1; stop-color:#B3A49D"/>
  </linearGradient>
  <linearGradient id="id3" gradientUnits="userSpaceOnUse" xlink:href="#id0" x1="25.43" y1="12.02" x2="25.59" y2="12.02">
  </linearGradient>
  <linearGradient id="id4" gradientUnits="userSpaceOnUse" xlink:href="#id0" x1="2.9" y1="12.02" x2="3.06" y2="12.02">
  </linearGradient>
  <linearGradient id="id5" gradientUnits="userSpaceOnUse" xlink:href="#id1" x1="11.93" y1="12.86" x2="13.74" y2="12.86">
  </linearGradient>
  <linearGradient id="id6" gradientUnits="userSpaceOnUse" xlink:href="#id0" x1="24.73" y1="12.02" x2="24.89" y2="12.02">
  </linearGradient>
  <linearGradient id="id7" gradientUnits="userSpaceOnUse" xlink:href="#id0" x1="3.61" y1="12.02" x2="3.77" y2="12.02">
  </linearGradient>
  <linearGradient id="id8" gradientUnits="userSpaceOnUse" xlink:href="#id0" x1="26.14" y1="12.02" x2="26.3" y2="12.02">
  </linearGradient>
 </defs>
 <g id="Слой_x0020_1">
  <metadata id="CorelCorpID_0Corel-Layer"/>
  <g id="_1808572566656">
   <rect class="fil0" width="29.2" height="23.49"/>
   <path class="fil1" d="M1.2 1.5l0 -0.51c0,-0.03 -0.01,-0.06 -0.04,-0.07l-0.07 -0.05 13.48 0 0.03 0 0 0 0.03 0 13.48 0 -0.07 0.05c-0.03,0.01 -0.04,0.04 -0.04,0.07l0 0.51c0.1,-0.04 0.21,-0.03 0.33,0.01l0 0 0.03 0.01c0,8.98 0,11.98 0,20.96l0 0.02 0 0 0 0c-0.12,0.07 -0.26,0.06 -0.36,0.03l0 0.48c0,0.04 0.04,0.08 0.08,0.1l0.25 0 0 0.06 -13.7 0 -0.06 0 -13.7 0 0 -0.06 0.25 0c0.04,-0.02 0.08,-0.06 0.08,-0.1l0 -0.48c-0.1,0.03 -0.24,0.04 -0.36,-0.03l0 0 0 0 0 -0.02c0,-8.98 0,-11.98 0,-20.96l0.03 -0.01 0 0c0.12,-0.04 0.23,-0.05 0.33,-0.01zm26.71 -0.56c0.01,0.01 0.01,0.02 0.01,0.04l0 1.2c0,0 0,-0.04 0,0.01 0,0.04 0.12,0.06 0.2,0.06 0.05,0 0.14,-0.02 0.17,-0.06l0 19.65c-0.03,-0.03 -0.11,-0.03 -0.16,-0.03 -0.09,0 -0.21,0.02 -0.21,0.06 0,0.04 0,0 0,0l0 1.18c0,0.02 0.01,0.04 -0.03,0.06l-13.25 0 0 -22.17 13.27 0zm0.38 1.18l0 -0.58c-0.1,-0.04 -0.2,-0.04 -0.29,0l0 0.55c0,0.05 0.01,0.03 0.03,0.02 0.03,-0.01 0.07,-0.02 0.12,-0.02 0.06,0 0.11,0.01 0.13,0.03 0.01,0 0.01,0 0.01,0zm-0.01 19.79c-0.03,0.02 -0.22,0.02 -0.25,0.01 -0.02,-0.01 -0.03,-0.03 -0.03,0.02l0 0.55c0.09,0.03 0.19,0.04 0.29,0l0 -0.59c0,0.01 0,0.01 -0.01,0.01zm-26.99 -20.97c-0.01,0.01 -0.01,0.02 -0.01,0.04l0 1.2c0,0 0,-0.04 0,0.01 0,0.04 -0.12,0.06 -0.2,0.06 -0.05,0 -0.14,-0.02 -0.17,-0.06l0 19.65c0.03,-0.03 0.11,-0.03 0.16,-0.03 0.09,0 0.21,0.02 0.21,0.06 0,0.04 0,0 0,0l0 1.18c0.01,0.02 -0.01,0.04 0.03,0.06l13.25 0 0 -22.17 -13.27 0zm-0.38 1.18l0 -0.58c0.11,-0.04 0.2,-0.04 0.29,0l0 0.55c0,0.05 -0.01,0.03 -0.03,0.02 -0.03,-0.01 -0.07,-0.02 -0.12,-0.02 -0.06,0 -0.1,0.01 -0.13,0.03 -0.01,0 -0.01,0 -0.01,0zm0.01 19.79c0.03,0.02 0.22,0.02 0.25,0.01 0.02,-0.01 0.03,-0.03 0.03,0.02l0 0.55c-0.09,0.03 -0.18,0.04 -0.29,0l0 -0.59c0,0.01 0,0.01 0.01,0.01z"/>
   <g>
    <g>
     <circle class="fil2" cx="15.6" cy="12.86" r="0.37"/>
     <circle class="fil3" cx="15.6" cy="12.86" r="0.2"/>
     <rect class="fil4" x="15.46" y="12.72" width="1.81" height="0.27" rx="0.18" ry="0.14"/>
    </g>
    <g>
     <circle class="fil2" cx="13.6" cy="12.86" r="0.37"/>
     <circle class="fil3" cx="13.6" cy="12.86" r="0.2"/>
     <rect class="fil5" x="11.93" y="12.72" width="1.81" height="0.27" rx="0.18" ry="0.14"/>
    </g>
   </g>
   <g>
    <rect class="fil6" x="25.43" y="0.94" width="0.16" height="22.17"/>
    <rect class="fil7" x="24.73" y="0.94" width="0.16" height="22.17"/>
    <rect class="fil8" x="26.14" y="0.94" width="0.16" height="22.17"/>
   </g>
   <rect class="fil9" x="3.61" y="0.94" width="0.16" height="22.17"/>
   <rect class="fil10" x="2.9" y="0.94" width="0.16" height="22.17"/>
   <rect class="fil11" x="4.32" y="0.94" width="0.16" height="22.17"/>
  </g>
 </g>
</svg>
