<?xml version="1.0" encoding="UTF-8"?>
<!DOCTYPE svg PUBLIC "-//W3C//DTD SVG 1.1//EN" "http://www.w3.org/Graphics/SVG/1.1/DTD/svg11.dtd">
<!-- Creator: CorelDRAW -->
<svg xmlns="http://www.w3.org/2000/svg" xml:space="preserve" width="225px" height="350px" version="1.1" style="shape-rendering:geometricPrecision; text-rendering:geometricPrecision; image-rendering:optimizeQuality; fill-rule:evenodd; clip-rule:evenodd"
viewBox="0 0 6.16 9.58"
 xmlns:xlink="http://www.w3.org/1999/xlink"
 xmlns:xodm="http://www.corel.com/coreldraw/odm/2003">
 <defs>
  <style type="text/css">
   <![CDATA[
    .fil3 {fill:#1A1A1A}
    .fil2 {fill:#242424}
    .fil1 {fill:#7A6E65}
    .fil5 {fill:url(#id0)}
    .fil7 {fill:url(#id1)}
    .fil4 {fill:url(#id2)}
    .fil0 {fill:url(#id3)}
    .fil6 {fill:url(#id4)}
   ]]>
  </style>
  <linearGradient id="id0" gradientUnits="userSpaceOnUse" x1="1.46" y1="4.9" x2="1.53" y2="4.9">
   <stop offset="0" style="stop-opacity:1; stop-color:#948881"/>
   <stop offset="1" style="stop-opacity:1; stop-color:#CFBEB0"/>
  </linearGradient>
  <linearGradient id="id1" gradientUnits="userSpaceOnUse" xlink:href="#id0" x1="1.18" y1="4.9" x2="1.24" y2="4.9">
  </linearGradient>
  <linearGradient id="id2" gradientUnits="userSpaceOnUse" x1="4.79" y1="5.24" x2="5.52" y2="5.24">
   <stop offset="0" style="stop-opacity:1; stop-color:#302F2F"/>
   <stop offset="0.211765" style="stop-opacity:1; stop-color:#323232"/>
   <stop offset="1" style="stop-opacity:1; stop-color:#242424"/>
  </linearGradient>
  <linearGradient id="id3" gradientUnits="userSpaceOnUse" x1="0.19" y1="2.09" x2="5.97" y2="7.49">
   <stop offset="0" style="stop-opacity:1; stop-color:#ADA197"/>
   <stop offset="0.760784" style="stop-opacity:1; stop-color:#B5A296"/>
   <stop offset="1" style="stop-opacity:1; stop-color:#B3A49D"/>
  </linearGradient>
  <linearGradient id="id4" gradientUnits="userSpaceOnUse" xlink:href="#id0" x1="1.75" y1="4.9" x2="1.82" y2="4.9">
  </linearGradient>
 </defs>
 <g id="Слой_x0020_1">
  <metadata id="CorelCorpID_0Corel-Layer"/>
  <g id="_1772981229968">
   <rect class="fil0" width="6.16" height="9.58"/>
   <path class="fil1" d="M0.5 0.61l0 -0.21c0,-0.01 -0.01,-0.02 -0.02,-0.03l-0.03 -0.01 5.34 -0.01 0.01 0 0 9.1 -5.43 0 0 -0.03 0.1 0c0.01,0 0.03,-0.02 0.03,-0.04l0 -0.19c-0.04,0.01 -0.1,0.01 -0.15,-0.01l0 0 0 0 0 -0.01c0,-3.66 0,-4.89 0,-8.55l0.02 0 0 0c0.05,-0.02 0.09,-0.02 0.13,-0.01zm0.03 -0.23c0,0.01 0,0.01 0,0.02l0 0.49c0,0 0,-0.02 0,0 0,0.02 -0.05,0.03 -0.08,0.03 -0.02,0 -0.05,-0.01 -0.07,-0.03l0 8.01c0.01,-0.01 0.05,-0.01 0.07,-0.01 0.03,0 0.08,0.01 0.08,0.03 0,0.01 0,0 0,0l0 0.48c0,0.01 0,0.01 0.01,0.02l5.23 0 0 -9.04 -5.24 0zm-0.15 0.49l0 -0.24c0.04,-0.02 0.08,-0.02 0.12,0l0 0.22c0,0.02 0,0.01 -0.01,0.01 -0.01,0 -0.03,-0.01 -0.05,-0.01 -0.02,0 -0.04,0.01 -0.05,0.01 -0.01,0 -0.01,0 -0.01,0.01zm0.01 8.06c0.01,0.01 0.08,0.01 0.1,0.01 0.01,-0.01 0.01,-0.01 0.01,0l0 0.23c-0.04,0.01 -0.08,0.01 -0.12,0l0 -0.24c0,0 0,0 0.01,0z"/>
   <g>
    <circle class="fil2" cx="5.47" cy="5.24" r="0.15"/>
    <circle class="fil3" cx="5.47" cy="5.24" r="0.08"/>
    <rect class="fil4" x="4.79" y="5.19" width="0.73" height="0.11" rx="0.07" ry="0.06"/>
   </g>
   <g>
    <rect class="fil5" x="1.46" y="0.38" width="0.06" height="9.04"/>
    <rect class="fil6" x="1.75" y="0.38" width="0.06" height="9.04"/>
    <rect class="fil7" x="1.18" y="0.38" width="0.06" height="9.04"/>
   </g>
  </g>
 </g>
</svg>
